@startuml

skinparam class {
    BackgroundColor #white
}

class AdminConsoleOperator {
+AdminConsole
+AdminConsoleController()
}
class CDPipelineOperator {
+CDPipeline
+Stage
+CDPipelineController()
+StageController()
}
class CodebaseOperator {
+Codebase
+CodebaseBranch
+CodebaseImageStream
+GitServer
+JiraServer
+JiraFixVersion
+CodebaseController()
+CodebaseBranchController()
+GitServerController()
+JiraServerController()
+JiraFixVersionController()
}
class EDPComponentOperator {
+EDPComponent
}
class GerritOperator #lemonchiffon {
+Gerrit
+GerritReplicationConfig
+GerritController()
+GerritReplicationConfigController()
}
class JenkinsOperator {
+Jenkins
+JenkinsFolder
+JenkinsJob
+JenkinsScript
+JenkinsServiceAccount
+JenkinsController()
+JenkinsFolderController()
+JenkinsJobController()
+JenkinsScriptController()
+JenkinsServiceAccountController()
}
class KeycloakOperator {
+Keycloak
+KeycloakClient
+KeycloakRealm
+KeycloakController()
+KeycloakClientController()
+KeycloakRealmController()
}
class NexusOperator  {
+Nexus
+NexusController()
}
class SonarOperator {
+Sonar
+SonarController()
}
class Reconciler {
+CDPipelineController()
+CodebaseController()
+CodebaseBranchController()
+EDPComponentController()
+GitServerController()
+JenkinsSlaveController(Jenkins)
+JenkinsJobController(Jenkins)
+JobProvisioningController(Jenkins)
+JiraServer()
+StageController()
+TemplateController()
}

AdminConsoleOperator --> EDPComponentOperator : api
AdminConsoleOperator --> KeycloakOperator : api, keycloakHelper
CDPipelineOperator --> CodebaseOperator : api
CDPipelineOperator --> JenkinsOperator : api, spec (const)
CodebaseOperator --> JenkinsOperator : api
CodebaseOperator --> EDPComponentOperator : api
GerritOperator --> EDPComponentOperator : api
GerritOperator --> JenkinsOperator : api, helper
GerritOperator --> KeycloakOperator : api
JenkinsOperator --> CDPipelineOperator : api
JenkinsOperator --> CodebaseOperator : api, openshift, util, model
JenkinsOperator --> EDPComponentOperator : api
JenkinsOperator --> GerritOperator : api, spec (const)
JenkinsOperator --> KeycloakOperator : api
KeycloakOperator --> EDPComponentOperator : api
KeycloakOperator --> JenkinsOperator : helper
NexusOperator --> EDPComponentOperator : api
NexusOperator --> JenkinsOperator : api, helper
NexusOperator --> KeycloakOperator : api, keycloakHelper
SonarOperator --> EDPComponentOperator : api
SonarOperator --> JenkinsOperator : api, helper
SonarOperator --> KeycloakOperator : api
Reconciler --> CDPipelineOperator : api
Reconciler --> CodebaseOperator : api
Reconciler --> EDPComponentOperator : api
Reconciler --> JenkinsOperator : api

legend
|= |= Type |
|<back:white>   </back>| Implemented Openshift&K8S |
|<back:#lemonchiffon>   </back>| Implemented Openshift |
endlegend

@enduml